<?xml version="1.0" standalone="no"?>
<!DOCTYPE svg PUBLIC "-//W3C//DTD SVG 20010904//EN"
 "http://www.w3.org/TR/2001/REC-SVG-20010904/DTD/svg10.dtd">
<svg version="1.0" xmlns="http://www.w3.org/2000/svg"
 width="266.000000pt" height="266.000000pt" viewBox="0 0 266.000000 266.000000"
 preserveAspectRatio="xMidYMid meet">
<metadata>
Created by potrace 1.11, written by Peter Selinger 2001-2013
</metadata>
<g transform="translate(0.000000,266.000000) scale(0.100000,-0.100000)"
fill="#000000" stroke="none">
<path d="M0 1330 l0 -1330 1330 0 1330 0 0 1330 0 1330 -1330 0 -1330 0 0
-1330z m1552 1156 l47 -21 -45 -110 -44 -111 -73 4 c-39 2 -73 5 -74 6 -1 1
21 61 49 134 57 148 46 140 140 98z m475 -187 c32 -12 61 -25 66 -28 6 -6 -84
-245 -98 -259 -2 -3 -19 8 -37 24 -19 16 -44 36 -57 44 l-23 15 43 113 c24 61
45 112 46 112 1 0 28 -10 60 -21z m-442 -98 c44 -12 121 -41 170 -65 286 -141
467 -397 506 -717 12 -101 2 -225 -26 -334 -50 -190 -194 -396 -354 -504 -164
-111 -326 -163 -516 -163 -236 0 -428 70 -606 223 -127 110 -235 283 -281 454
-29 109 -31 336 -4 439 45 169 114 293 228 412 147 153 302 234 528 278 59 11
277 -3 355 -23z m-753 -1665 c-7 -28 -75 -192 -82 -199 -9 -10 -130 31 -130
44 0 5 18 55 41 111 23 57 45 113 50 126 9 23 10 23 66 -24 32 -26 57 -52 55
-58z m517 -152 c2 -2 -18 -60 -45 -129 -55 -140 -46 -135 -139 -95 -26 11 -45
24 -43 29 2 4 21 54 43 110 l40 102 70 -6 c39 -4 72 -9 74 -11z"/>
<path d="M1262 2079 c-190 -24 -376 -128 -495 -274 -59 -73 -129 -216 -152
-310 -24 -96 -22 -258 3 -355 41 -156 107 -266 226 -377 130 -121 292 -190
471 -200 440 -24 806 322 805 760 -1 389 -291 713 -680 757 -94 11 -89 11
-178 -1z m416 -244 c114 -27 206 -90 231 -158 30 -79 -4 -194 -74 -256 -53
-46 -131 -81 -185 -81 l-45 -1 39 -14 c154 -55 167 -257 24 -397 -209 -204
-699 -174 -835 52 -27 44 -33 64 -33 111 0 71 12 104 53 148 53 56 120 74 183
51 l27 -11 -36 -37 c-88 -91 -103 -240 -30 -304 19 -17 24 -8 208 372 l188
390 46 0 c25 0 64 5 86 10 22 5 41 7 43 5 2 -2 -31 -74 -72 -161 -42 -86 -76
-159 -76 -160 0 -2 33 -4 74 -4 61 0 83 5 127 28 97 51 163 174 139 261 -34
126 -268 169 -442 80 -54 -28 -134 -103 -165 -157 -33 -55 -63 -153 -63 -203
0 -36 -2 -39 -28 -39 -58 0 -102 57 -102 133 0 140 170 300 363 342 85 18 277
18 355 0z"/>
<path d="M1294 1136 l-104 -213 -67 -6 c-72 -7 -85 -13 -63 -28 33 -21 99 -31
184 -27 148 5 250 67 315 188 75 140 20 272 -122 293 l-39 6 -104 -213z"/>
</g>
</svg>
