<?xml version="1.0" standalone="no"?>
<!DOCTYPE svg PUBLIC "-//W3C//DTD SVG 20010904//EN"
 "http://www.w3.org/TR/2001/REC-SVG-20010904/DTD/svg10.dtd">
<svg version="1.0" xmlns="http://www.w3.org/2000/svg"
 width="2000.000000pt" height="2000.000000pt" viewBox="0 0 2000.000000 2000.000000"
 preserveAspectRatio="xMidYMid meet">
<metadata>
Created by potrace 1.11, written by Peter Selinger 2001-2013
</metadata>
<g transform="translate(0.000000,2000.000000) scale(0.100000,-0.100000)"
fill="#000000" stroke="none">
<path d="M9628 19995 c-2 -1 -59 -5 -128 -9 -268 -13 -428 -26 -645 -52 -16
-2 -52 -6 -80 -9 -27 -4 -113 -15 -190 -26 -77 -11 -156 -22 -175 -24 -19 -3
-57 -10 -85 -15 -27 -5 -66 -12 -85 -15 -19 -3 -66 -12 -105 -20 -38 -8 -81
-16 -95 -19 -76 -14 -243 -50 -295 -63 -33 -8 -71 -17 -85 -20 -14 -2 -76 -18
-138 -34 -62 -17 -120 -32 -130 -34 -187 -44 -656 -196 -962 -313 -121 -46
-392 -157 -418 -172 -9 -5 -37 -18 -62 -28 -186 -78 -645 -308 -850 -427 -74
-42 -151 -86 -170 -97 -19 -11 -71 -42 -115 -70 -44 -27 -89 -55 -99 -61 -109
-66 -463 -304 -561 -376 -335 -246 -559 -427 -875 -710 -134 -120 -568 -555
-686 -686 -182 -205 -267 -304 -363 -425 -41 -52 -78 -97 -82 -100 -14 -11
-281 -373 -375 -510 -176 -254 -350 -529 -470 -745 -15 -27 -56 -102 -92 -165
-56 -101 -242 -472 -315 -630 -178 -382 -384 -943 -511 -1385 -45 -159 -107
-398 -121 -468 -2 -10 -6 -26 -9 -35 -3 -9 -7 -28 -10 -42 -3 -14 -23 -113
-45 -220 -38 -182 -52 -255 -66 -355 -3 -22 -10 -65 -15 -95 -9 -50 -15 -91
-25 -160 -12 -89 -15 -110 -20 -155 -3 -27 -9 -84 -14 -125 -6 -41 -12 -106
-16 -145 -3 -38 -7 -92 -10 -120 -29 -325 -41 -1017 -22 -1340 13 -224 16
-278 22 -335 3 -30 8 -80 10 -110 6 -72 17 -171 20 -190 1 -8 6 -46 10 -83 3
-37 8 -78 11 -90 2 -12 6 -42 9 -67 3 -25 8 -58 11 -75 3 -16 7 -41 9 -55 2
-14 8 -56 14 -95 7 -38 13 -81 16 -95 7 -47 16 -95 30 -165 8 -38 17 -86 20
-105 18 -107 103 -466 165 -695 65 -242 243 -780 315 -950 7 -16 41 -100 75
-185 159 -389 425 -928 602 -1218 21 -34 38 -64 38 -66 0 -14 388 -616 410
-636 3 -3 20 -27 39 -55 250 -363 660 -853 1016 -1215 500 -509 988 -915 1575
-1312 166 -112 447 -288 459 -288 5 0 11 -4 13 -8 3 -7 77 -50 346 -201 129
-72 562 -284 717 -352 407 -176 810 -324 1169 -429 94 -28 185 -55 201 -60
165 -51 747 -181 965 -215 25 -4 52 -9 61 -10 49 -9 97 -17 119 -20 14 -1 45
-6 70 -10 25 -4 56 -9 70 -10 14 -2 43 -5 65 -9 22 -3 67 -8 100 -12 33 -3 67
-8 75 -9 8 -2 51 -6 95 -10 44 -4 91 -8 105 -10 168 -24 543 -40 935 -40 394
0 755 15 950 40 17 2 62 7 100 10 39 4 83 9 99 11 16 2 56 6 89 9 33 3 63 7
66 9 3 2 37 7 75 11 38 3 72 8 75 10 3 2 29 6 56 9 60 7 75 10 280 46 179 33
169 31 332 66 151 32 141 30 193 44 25 7 52 14 60 15 8 2 38 9 65 15 28 6 57
13 65 15 47 9 437 124 565 166 253 82 544 188 700 255 17 7 55 22 85 34 30 12
77 32 105 44 27 13 100 45 160 71 186 82 564 273 775 393 25 14 62 35 83 46
289 161 781 489 1107 740 179 137 576 467 620 516 3 3 37 34 75 69 256 236
579 570 790 816 33 39 63 72 66 75 3 3 54 66 114 140 60 74 112 137 115 140 3
3 25 32 49 65 25 33 47 62 51 65 27 23 421 589 497 715 188 310 260 434 366
630 56 103 206 404 257 515 29 63 63 139 77 169 170 376 362 919 494 1401 37
133 130 523 143 597 4 17 17 87 30 155 24 121 40 213 51 293 3 22 10 65 15 95
5 30 12 78 16 105 3 28 8 58 9 67 2 9 7 48 11 85 3 37 8 75 9 83 2 8 6 49 10
90 3 41 8 90 11 108 2 18 7 74 10 125 3 50 7 103 9 116 19 117 27 959 12 1206
-4 66 -9 156 -12 200 -5 76 -8 123 -20 245 -11 104 -26 245 -30 275 -2 17 -7
53 -10 80 -6 50 -8 62 -20 145 -7 51 -33 215 -39 246 -3 12 -7 37 -10 55 -32
188 -101 508 -161 744 -213 837 -598 1778 -1017 2488 -32 54 -58 101 -58 103
0 3 -8 17 -19 32 -29 42 -141 223 -141 227 0 5 -234 353 -300 445 -116 163
-439 583 -470 610 -3 3 -30 34 -60 70 -303 360 -740 801 -1080 1090 -47 40
-98 84 -115 99 -16 14 -77 64 -135 111 -88 72 -136 109 -245 192 -5 4 -23 18
-40 31 -59 47 -352 255 -460 327 -970 643 -2009 1104 -3110 1379 -194 48 -393
94 -465 106 -19 3 -69 13 -110 21 -86 18 -100 21 -155 29 -39 5 -90 14 -130
21 -21 5 -132 21 -200 29 -22 3 -51 8 -65 10 -14 3 -50 7 -80 10 -30 3 -73 8
-95 11 -56 6 -119 12 -195 19 -36 4 -81 8 -100 10 -19 2 -80 7 -135 10 -55 3
-122 8 -150 11 -54 5 -921 14 -927 9z m652 -940 c118 -3 242 -7 275 -10 33 -2
101 -7 152 -10 50 -3 102 -8 115 -10 13 -2 57 -6 98 -10 41 -3 84 -7 95 -9 11
-2 47 -7 80 -10 33 -3 76 -9 95 -11 19 -3 49 -7 65 -9 17 -2 80 -12 140 -21
61 -10 119 -18 130 -20 21 -3 293 -54 322 -60 10 -2 61 -13 113 -25 52 -12
102 -23 110 -25 79 -17 300 -74 427 -111 1375 -391 2655 -1117 3701 -2099 183
-171 406 -400 557 -570 39 -43 77 -86 85 -95 37 -39 225 -267 316 -385 226
-291 417 -569 607 -883 64 -107 117 -195 117 -197 0 -2 14 -27 30 -55 233
-394 518 -1042 695 -1576 89 -268 229 -781 251 -922 3 -19 10 -46 15 -59 5
-13 6 -23 4 -23 -2 0 -1 -10 4 -23 5 -13 12 -48 16 -78 4 -30 8 -56 10 -59 14
-23 90 -543 110 -755 3 -27 7 -70 10 -95 4 -43 8 -84 21 -270 14 -206 20 -723
10 -945 -5 -104 -15 -280 -21 -345 -2 -25 -6 -79 -10 -120 -3 -41 -8 -86 -10
-100 -2 -14 -7 -54 -10 -90 -4 -36 -8 -76 -10 -90 -12 -86 -15 -110 -20 -150
-3 -25 -12 -83 -20 -130 -7 -47 -16 -103 -20 -125 -3 -23 -7 -52 -10 -65 -4
-22 -17 -91 -32 -170 -2 -14 -13 -68 -25 -120 -11 -52 -22 -106 -25 -120 -15
-86 -111 -447 -163 -615 -17 -55 -32 -108 -35 -119 -30 -127 -257 -726 -363
-956 -16 -36 -40 -87 -52 -115 -245 -542 -603 -1137 -1004 -1670 -49 -66 -95
-125 -101 -132 -5 -7 -15 -18 -20 -25 -220 -278 -419 -501 -705 -787 -244
-245 -547 -515 -750 -671 -25 -19 -47 -37 -50 -41 -3 -3 -88 -68 -190 -144
-270 -200 -660 -456 -910 -597 -25 -14 -63 -35 -85 -48 -304 -173 -821 -416
-1145 -537 -325 -122 -523 -188 -790 -263 -195 -55 -486 -128 -575 -144 -13
-3 -60 -12 -102 -20 -43 -9 -89 -19 -103 -21 -47 -10 -355 -60 -430 -70 -25
-3 -56 -8 -70 -10 -14 -2 -50 -7 -80 -10 -30 -3 -68 -8 -85 -10 -50 -7 -147
-17 -200 -20 -27 -2 -79 -6 -115 -9 -84 -8 -200 -15 -325 -22 -124 -6 -646 -6
-777 0 -144 7 -287 16 -338 21 -25 2 -76 7 -115 10 -80 7 -98 9 -279 30 -193
22 -456 65 -681 109 -926 182 -1882 542 -2715 1021 -222 128 -645 398 -740
472 -8 7 -96 72 -195 146 -144 108 -457 359 -511 411 -6 6 -44 40 -84 76 -223
199 -501 476 -710 710 -47 52 -89 100 -95 106 -5 6 -30 35 -55 64 -25 30 -59
70 -76 90 -55 63 -218 272 -320 410 -250 337 -457 665 -693 1092 -178 324
-426 885 -559 1268 -116 333 -243 772 -288 994 -2 11 -15 72 -29 135 -13 64
-27 132 -30 151 -3 19 -8 42 -10 50 -2 8 -7 31 -10 50 -3 19 -7 46 -10 60 -5
25 -9 52 -20 124 -4 21 -8 46 -10 55 -10 53 -39 280 -50 381 -3 30 -7 71 -10
90 -6 47 -17 166 -20 215 -11 174 -17 274 -20 360 -5 126 -5 605 0 705 13 261
16 319 20 350 2 19 6 67 9 105 10 118 40 384 51 455 2 14 6 45 10 70 3 25 8
56 10 70 3 14 7 41 10 60 17 113 62 346 92 480 19 85 36 163 38 173 11 50 70
274 97 367 16 58 33 119 38 135 27 103 191 581 230 670 5 11 23 56 40 100 39
98 50 125 60 146 5 9 26 58 48 110 70 165 216 465 306 629 20 36 39 72 43 80
6 13 83 149 133 235 14 25 55 93 133 220 60 97 264 399 351 520 89 122 315
415 336 435 3 3 41 48 85 100 44 52 84 100 90 106 5 6 44 49 85 95 193 215
484 506 690 689 40 36 78 70 84 75 42 39 291 245 371 307 841 655 1725 1130
2720 1464 138 46 252 84 255 84 3 0 30 7 60 16 109 32 297 83 385 104 50 12
98 23 108 26 9 2 26 6 38 9 11 2 28 6 37 9 9 3 34 7 56 11 21 3 41 7 45 9 3 2
22 7 41 10 19 3 91 17 160 30 69 14 141 27 160 30 53 7 110 16 165 26 28 5 68
11 90 14 22 2 76 9 120 15 44 6 103 13 130 16 28 2 73 7 100 10 82 9 145 15
230 20 44 4 105 8 135 10 30 2 163 7 295 11 132 4 241 7 242 8 1 1 21 1 45 0
24 -2 140 -5 258 -9z"/>
<path d="M6650 12198 c0 -3359 -3 -4208 -12 -4209 -7 0 -339 -1 -738 -2 l-725
-2 -2 -617 -2 -618 740 0 739 0 0 -1579 0 -1580 2248 3 c1236 2 2276 6 2312 9
36 3 101 8 145 12 102 8 183 15 215 20 14 2 48 7 75 10 1205 151 2105 657
2648 1490 221 338 359 696 462 1195 1 8 8 51 15 95 7 44 14 89 16 100 3 11 7
45 9 75 3 30 7 73 9 95 27 213 27 829 2 962 -3 12 -8 53 -11 90 -4 37 -8 79
-11 93 -2 14 -7 41 -10 60 -2 19 -9 58 -14 85 -5 28 -12 61 -14 75 -2 14 -13
63 -24 110 -124 527 -333 954 -656 1341 -384 460 -882 772 -1523 953 -50 14
-99 26 -107 26 -33 0 -14 19 27 26 23 4 44 8 47 9 3 1 32 7 65 14 75 17 333
101 400 130 102 46 251 124 319 168 425 274 726 691 897 1243 25 81 38 131 75
295 13 58 23 116 29 170 4 33 9 63 12 67 2 4 6 34 9 65 2 32 7 76 9 98 24 199
24 783 1 901 -2 11 -7 45 -10 75 -30 268 -86 498 -185 767 -39 104 -141 318
-187 389 -19 29 -34 56 -34 59 0 2 -32 51 -71 107 -357 511 -886 888 -1545
1100 -210 68 -539 143 -744 171 -175 24 -314 38 -516 53 -38 2 -1040 6 -2226
7 l-2158 3 0 -4209z m4066 2778 c99 -4 189 -8 200 -10 10 -2 51 -7 89 -10 62
-6 94 -11 157 -22 9 -1 38 -6 65 -9 26 -4 86 -16 133 -27 47 -11 95 -22 108
-24 28 -6 211 -65 272 -89 92 -36 280 -133 325 -167 6 -4 42 -31 80 -59 133
-99 304 -285 376 -410 84 -148 151 -309 189 -459 28 -109 28 -111 41 -200 5
-41 12 -91 15 -110 22 -157 22 -531 -1 -671 -2 -13 -6 -46 -10 -72 -3 -26 -10
-71 -16 -100 -6 -29 -13 -65 -15 -80 -18 -98 -104 -331 -162 -437 -122 -224
-319 -435 -523 -559 -121 -75 -413 -198 -535 -226 -115 -27 -248 -55 -284 -60
-25 -3 -70 -10 -100 -15 -59 -10 -122 -16 -270 -29 -52 -5 -668 -9 -1367 -10
l-1273 -2 0 1930 0 1930 48 3 c85 5 2272 0 2458 -6z m389 -5279 c17 -3 57 -8
90 -11 158 -16 180 -19 186 -22 3 -1 28 -6 55 -9 75 -10 285 -61 403 -99 513
-164 885 -479 1102 -934 27 -57 49 -107 49 -113 0 -5 4 -17 9 -27 44 -80 125
-396 146 -572 2 -19 9 -82 16 -140 14 -116 18 -594 6 -735 -35 -443 -149 -823
-335 -1118 -256 -407 -629 -659 -1182 -797 -63 -16 -131 -31 -150 -34 -19 -3
-46 -8 -60 -11 -14 -3 -45 -8 -70 -10 -25 -3 -52 -8 -60 -10 -8 -2 -51 -7 -95
-11 -44 -4 -93 -8 -110 -10 -120 -13 -459 -16 -1585 -16 -707 0 -1291 1 -1297
1 -10 1 -13 181 -13 866 l0 865 1340 0 1340 0 0 618 0 619 -1327 1 c-731 0
-1334 1 -1340 1 -10 1 -13 180 -13 861 l0 861 1433 -4 c787 -2 1446 -7 1462
-10z"/>
</g>
</svg>
